<svg width="400" height="240" xmlns="http://www.w3.org/2000/svg">
  <rect width="100%" height="100%" fill="#9BA93E"/>
  <g transform="translate(150, 120)" stroke="#fff" stroke-width="2" fill="none">
    <!-- Credit card icon -->
    <rect x="-50" y="-30" width="60" height="40" rx="4" fill="#5A9BD5" stroke-width="0"/>
    <rect x="-40" y="-10" width="40" height="5" fill="#FFF" stroke-width="0"/>
    <circle cx="-25" cy="-15" r="6" fill="#FFF" stroke-width="0"/>
    
    <!-- Shopping bags -->
    <g transform="translate(40, -10)">
      <polygon points="0,0 15,0 20,-20 -5,-20" fill="#D69E2F" stroke-width="0"/>
      <line x1="0" y1="0" x2="-5" y2="-20" stroke="#333"/>
      <line x1="15" y1="0" x2="20" y2="-20" stroke="#333"/>
      <line x1="0" y1="0" x2="15" y2="0" stroke="#333"/>
      <line x1="-5" y1="-20" x2="20" y2="-20" stroke="#333"/>
      <line x1="-1" y1="-5" x2="3" y2="-15" stroke="#333" stroke-width="1"/>
      <line x1="16" y1="-5" x2="12" y2="-15" stroke="#333" stroke-width="1"/>
    </g>

    <g transform="translate(50, -8)">
      <polygon points="0,0 12,0 16,-16 -4,-16" fill="#B33B3B" stroke-width="0"/>
      <line x1="0" y1="0" x2="-4" y2="-16" stroke="#333"/>
      <line x1="12" y1="0" x2="16" y2="-16" stroke="#333"/>
      <line x1="0" y1="0" x2="12" y2="0" stroke="#333"/>
      <line x1="-4" y1="-16" x2="16" y2="-16" stroke="#333"/>
      <line x1="-1" y1="-4" x2="2" y2="-12" stroke="#333" stroke-width="1"/>
      <line x1="13" y1="-4" x2="10" y2="-12" stroke="#333" stroke-width="1"/>
    </g>
  </g>
</svg> 